<svg width="48" height="48" viewBox="0 0 48 48" fill="none" xmlns="http://www.w3.org/2000/svg">
<circle cx="24" cy="24" r="24" fill="black"/>
<path d="M20.8568 16.3163C20.868 15.0827 20.7109 13.8782 20.2022 12.7395C19.5926 11.3709 18.6238 10.3891 17.0641 10.0971C15.9906 9.89273 14.9733 10.1154 13.9971 10.546C13.1293 10.9293 12.3738 11.4512 11.8501 12.2468C11.6182 12.6008 11.4761 12.9914 11.5172 13.422C11.5546 13.8016 11.6668 13.922 12.0671 13.933C12.5421 13.9476 13.0171 13.933 13.4959 13.9293C14.6404 13.922 15.6278 14.5242 16.0467 15.4951C16.4283 16.3783 16.2038 17.3163 15.4782 17.966C14.4459 18.8893 13.2565 19.0426 11.981 18.612C10.7018 18.1813 9.84157 17.3236 9.65455 15.9878C9.49746 14.8673 9.74432 13.7834 10.2642 12.7687C11.0534 11.2322 12.3551 10.265 13.9522 9.6336C15.0406 9.20293 16.1702 8.95839 17.3446 9.00584C20.2322 9.11898 22.4202 10.4037 23.864 12.849C24.8814 14.568 25.1507 16.4404 24.9262 18.393C24.6345 20.904 23.4974 23.05 21.9078 24.9917C20.3593 26.8823 18.5004 28.4517 16.4993 29.8678C14.5357 31.2547 12.4747 32.4883 10.3316 33.5868C10.0099 33.7511 9.66204 33.8752 9.31793 33.992C9.22816 34.0212 9.10847 33.9628 9 33.9445C9.02992 33.8496 9.02618 33.7219 9.08977 33.6598C9.58723 33.1817 10.0735 32.6854 10.6121 32.251C11.5771 31.4736 12.6019 30.7656 13.5594 29.9845C15.7812 28.1706 17.6887 26.0939 18.9866 23.5391C19.9666 21.612 20.6211 19.5901 20.8082 17.4367C20.8231 17.2506 20.8418 17.0645 20.8493 16.8783C20.8568 16.6922 20.8493 16.5024 20.8493 16.3163H20.8568Z" fill="white"/>
<path d="M13 37L37 37" stroke="#EE0000" stroke-width="2" stroke-linecap="round"/>
<path d="M22 31L37 31" stroke="#EE0000" stroke-width="2" stroke-linecap="round"/>
<path d="M32 25L37 25" stroke="#EE0000" stroke-width="2" stroke-linecap="round"/>
<path d="M32 19L37 19" stroke="#EE0000" stroke-width="2" stroke-linecap="round"/>
<path d="M32 12L37 12" stroke="#EE0000" stroke-width="2" stroke-linecap="round"/>
<circle cx="27.5" cy="18.5" r="1.5" fill="white"/>
<circle cx="27.5" cy="12.5" r="1.5" fill="white"/>
</svg>
